HIERARCHY
ROOT Hips
{
	OFFSET 0.00000 0.00000 0.00000
	CHANNELS 6 Xposition Yposition Zposition Zrotation Yrotation Xrotation 
	JOINT LHipJoint
	{
		OFFSET 0 0 0
		CHANNELS 3 Zrotation Yrotation Xrotation
		JOINT LeftHip
		{
			OFFSET 1.62964 -1.40469 0.78906
			CHANNELS 3 Zrotation Yrotation Xrotation
			JOINT LeftKnee
			{
				OFFSET 2.29640 -6.30932 0.00000
				CHANNELS 3 Zrotation Yrotation Xrotation
				JOINT LeftAnkle
				{
					OFFSET 2.29451 -6.30412 0.00000
					CHANNELS 3 Zrotation Yrotation Xrotation
					JOINT LeftToe
					{
						OFFSET 0.03611 -0.09921 1.56387
						CHANNELS 3 Zrotation Yrotation Xrotation
						End Site
						{
							OFFSET 0.00000 -0.00000 0.80291
						}
					}
				}
			}
		}
	}
	JOINT RHipJoint
	{
		OFFSET 0 0 0
		CHANNELS 3 Zrotation Yrotation Xrotation
		JOINT RightHip
		{
			OFFSET -1.73712 -1.40469 0.78906
			CHANNELS 3 Zrotation Yrotation Xrotation
			JOINT RightKnee
			{
				OFFSET -2.28137 -6.26801 0.00000
				CHANNELS 3 Zrotation Yrotation Xrotation
				JOINT RightAnkle
				{
					OFFSET -2.28681 -6.28298 0.00000
					CHANNELS 3 Zrotation Yrotation Xrotation
					JOINT RightToe
					{
						OFFSET -0.15927 -0.43759 1.61103
						CHANNELS 3 Zrotation Yrotation Xrotation
						End Site
						{
							OFFSET -0.00000 -0.00000 0.84630
						}
					}
				}
			}
		}
	}
	JOINT lowerback
	{
		OFFSET 0 0 0
		CHANNELS 3 Zrotation Yrotation Xrotation
		JOINT Chest
		{
			OFFSET -0.04227 2.04338 -0.00225
			CHANNELS 3 Zrotation Yrotation Xrotation
			JOINT Chest2
			{
				OFFSET -0.02148 2.04482 -0.04273
				CHANNELS 3 Zrotation Yrotation Xrotation
				JOINT lowerneck
				{
					OFFSET 0 0 0
					CHANNELS 3 Zrotation Yrotation Xrotation
					JOINT Neck
					{
						OFFSET 0.09180 1.44629 0.19359
						CHANNELS 3 Zrotation Yrotation Xrotation
						JOINT Head
						{
							OFFSET 0.00887 1.40645 0.14750
							CHANNELS 3 Zrotation Yrotation Xrotation
							End Site
							{
								OFFSET -0.00669 1.50671 0.03707
							}
						}
					}
				}
				JOINT LeftCollar
				{
					OFFSET 0 0 0
					CHANNELS 3 Zrotation Yrotation Xrotation
					JOINT LeftShoulder
					{
						OFFSET 2.17674 1.86763 -0.06520
CHANNELS 3 Zrotation Xrotation Yrotation
						JOINT LeftElbow
						{
OFFSET 0 -4.657760 0.000000
CHANNELS 3 Zrotation Xrotation Yrotation
							JOINT LeftWrist
							{
OFFSET 0 -3.555390 0.000000
CHANNELS 3 Zrotation Xrotation Yrotation
								JOINT lhand
								{
									OFFSET 0 0 0
CHANNELS 3 Zrotation Xrotation Yrotation
									JOINT LFingers
									{
OFFSET 0 -0.707260 0.000000
CHANNELS 3 Zrotation Xrotation Yrotation
										End Site
										{
OFFSET 0 -0.570220 0.000000
										}
									}
								}
								JOINT LThumb
								{
OFFSET 0 0.000000 0.000000
CHANNELS 3 Zrotation Xrotation Yrotation
									End Site
									{
OFFSET 0 -0.578920 0.578920
									}
								}
							}
						}
					}
				}
				JOINT RightCollar
				{
					OFFSET 0 0 0
					CHANNELS 3 Zrotation Yrotation Xrotation
					JOINT RightShoulder
					{
						OFFSET -2.80694 1.55459 -0.32496
CHANNELS 3 Zrotation Xrotation Yrotation
						JOINT RightElbow
						{
OFFSET 0 -4.719250 -0.000000
CHANNELS 3 Zrotation Xrotation Yrotation
							JOINT RightWrist
							{
OFFSET 0 -3.569900 0.000000
CHANNELS 3 Zrotation Xrotation Yrotation
								JOINT rhand
								{
									OFFSET 0 0 0
CHANNELS 3 Zrotation Xrotation Yrotation
									JOINT RFingers
									{
OFFSET 0 -0.507760 0.000000
CHANNELS 3 Zrotation Xrotation Yrotation
										End Site
										{
OFFSET 0 -0.409370 0.000000
										}
									}
								}
								JOINT RThumb
								{
OFFSET 0 0.000000 0.000000
CHANNELS 3 Zrotation Xrotation Yrotation
									End Site
									{
OFFSET 0 -0.415620 0.415620
									}
								}
							}
						}
					}
				}
			}
		}
	}
}
MOTION
Frames: 8
Frame Time: 0.008333333333333333
8.970900 16.268300 31.313200 179.040000 -0.673900 -153.773000 0.000000 0.000000 0.000000 -18.503000 -15.395100 -20.177200 0.212100 2.964900 8.181000 0.260100 0.498000 -9.826700 4.251700 -12.488100 -37.481100 0.000000 0.000000 0.000000 17.900400 15.764800 -20.012000 -0.244300 -3.180700 8.782400 -1.344100 -1.182700 -22.366900 -2.993800 10.685000 -31.224700 -5.354100 -1.588300 -30.860600 -0.455200 -1.021300 -1.984300 1.912500 -1.124900 13.978900 -1.467900 -3.844100 0.378300 5.409300 -4.234000 -10.823800 2.151100 -2.028200 -3.409700 -0.000000 -0.000000 0.000000 2.779300 -5.783000 -32.216100 7.968300 -13.501400 0.944700 21.988300 5.368600 9.804700 0.000000 0.000000 0.000000 -7.125000 0.000000 0.000000 -3.556900 19.433300 -2.175000 -0.000000 -0.000000 0.000000 2.708400 -5.368100 12.577400 -10.833100 -18.031900 -1.723900 -11.923100 15.556500 51.726200 0.000000 0.000000 0.000000 7.125000 0.000000 -0.000000 62.128700 75.271900 -47.995400
8.968313 16.268996 31.309618 179.030050 -0.643354 -153.831705 0.000000 0.000000 0.000000 -18.505985 -15.625341 -19.981087 0.209016 2.943309 8.121102 0.262090 0.753514 -9.972864 4.259461 -12.497950 -37.517019 0.000000 0.000000 0.000000 17.877515 15.663908 -19.981553 -0.247185 -3.199505 8.834637 -1.354050 -1.167377 -22.441922 -3.095986 10.848875 -31.771746 -5.327335 -1.545913 -30.848063 -0.476791 -0.974137 -1.991066 1.893794 -1.101617 13.961587 -1.467204 -3.863303 0.494018 5.423130 -4.254497 -10.907081 2.162045 -2.040339 -3.459649 0.000000 0.000000 0.000000 2.739799 -5.751459 -32.258984 7.957753 -13.484386 0.942213 22.263216 5.328601 10.225880 0.000000 0.000000 0.000000 -7.125000 0.000000 0.000000 -3.373424 18.960181 -2.097888 0.000000 0.000000 0.000000 2.732081 -5.399442 12.474418 -10.795390 -17.973991 -1.712259 -12.176823 15.909026 52.173747 0.000000 0.000000 0.000000 7.125000 0.000000 0.000000 63.622083 75.531095 -49.602312
8.972953 16.267713 31.313164 179.043860 -0.631419 -153.728052 0.000000 0.000000 0.000000 -18.463530 -15.487803 -20.204430 0.214544 2.982106 8.228906 0.266654 0.555714 -9.972016 4.274548 -12.517107 -37.586598 0.000000 0.000000 0.000000 17.898388 15.782693 -20.098119 -0.247200 -3.199501 8.834603 -1.350437 -1.244123 -22.443488 -3.167482 10.961271 -32.149506 -5.383035 -1.561243 -30.935218 -0.450170 -0.982414 -2.015652 1.946961 -1.112588 13.972390 -1.461161 -3.866469 0.538555 5.430625 -4.249452 -10.995015 2.167149 -2.037331 -3.499004 0.000000 0.000000 0.000000 2.712375 -5.780208 -32.199207 7.967105 -13.499447 0.944378 22.401020 4.843704 11.377371 0.000000 0.000000 0.000000 -7.125000 0.000000 0.000000 -3.315774 17.713391 -2.153335 0.000000 0.000000 0.000000 2.770809 -5.546019 12.272735 -10.726396 -17.867673 -1.691014 -12.535781 16.504295 52.559124 0.000000 0.000000 0.000000 7.125000 0.000000 0.000000 64.889849 75.798310 -51.029640
8.974083 16.266124 31.313102 179.083399 -0.644893 -153.719120 0.000000 0.000000 0.000000 -18.418284 -15.467193 -20.224725 0.213812 2.976984 8.214634 0.262169 0.620284 -9.916349 4.319615 -12.574035 -37.794145 0.000000 0.000000 0.000000 17.909041 15.887224 -20.067091 -0.241586 -3.162760 8.732163 -1.342520 -1.234065 -22.374749 -3.071278 10.809532 -31.640325 -5.348338 -1.543670 -30.961611 -0.443104 -0.972453 -2.020234 1.939325 -1.106889 13.978016 -1.457653 -3.850346 0.526097 5.416812 -4.231670 -10.964479 2.160207 -2.028534 -3.486989 0.000000 0.000000 0.000000 2.730815 -5.784538 -32.367819 8.025806 -13.594749 0.958190 23.114044 4.602702 10.814858 0.000000 0.000000 0.000000 -7.125000 0.000000 0.000000 -2.792572 18.254257 -1.779511 0.000000 0.000000 0.000000 2.809023 -5.664909 12.014607 -10.645129 -17.742296 -1.666176 -12.578307 16.848343 52.565955 0.000000 0.000000 0.000000 7.125000 0.000000 0.000000 64.895804 75.816858 -51.054835
8.975374 16.263258 31.313002 179.084980 -0.600610 -153.715080 0.000000 0.000000 0.000000 -18.437689 -15.391149 -20.233722 0.210762 2.955439 8.154720 0.258670 0.633844 -9.858368 4.402911 -12.677992 -38.174881 0.000000 0.000000 0.000000 17.902732 15.890760 -20.089727 -0.243068 -3.172980 8.760587 -1.345340 -1.155993 -22.367134 -2.998948 10.693328 -31.252371 -5.357110 -1.515373 -30.991693 -0.445450 -0.932807 -2.024612 1.956643 -1.090631 13.983098 -1.460932 -3.821289 0.493757 5.392885 -4.198375 -10.920195 2.149712 -2.011153 -3.467103 0.000000 0.000000 0.000000 2.735216 -5.819487 -32.435176 7.994851 -13.544458 0.950952 22.260079 4.571563 11.304413 0.000000 0.000000 0.000000 -7.125000 0.000000 0.000000 -3.411877 17.804468 -2.209297 0.000000 0.000000 0.000000 2.813030 -5.758621 11.804515 -10.558545 -17.608496 -1.639929 -12.390550 16.837331 52.172641 0.000000 0.000000 0.000000 7.125000 0.000000 0.000000 63.508361 75.612679 -49.587598
8.975985 16.260568 31.312513 179.063551 -0.501229 -153.636028 0.000000 0.000000 0.000000 -18.477976 -15.342022 -20.289473 0.207190 2.930724 8.085935 0.259380 0.536702 -9.830194 4.361897 -12.626965 -37.987608 0.000000 0.000000 0.000000 17.880176 15.774292 -20.265400 -0.249242 -3.212198 8.870200 -1.347252 -1.031945 -22.333656 -3.078032 10.820182 -31.675922 -5.402051 -1.488281 -31.114072 -0.450472 -0.882960 -2.038154 1.992196 -1.075091 14.016836 -1.460513 -3.789209 0.476623 5.366076 -4.162991 -10.867237 2.137801 -1.993738 -3.447201 0.000000 0.000000 0.000000 2.695912 -5.858028 -32.406374 8.009019 -13.567384 0.954212 21.899800 4.711979 10.824586 0.000000 0.000000 0.000000 -7.125000 0.000000 0.000000 -3.649038 18.349169 -2.319401 0.000000 0.000000 0.000000 2.795063 -5.812270 11.754769 -10.520434 -17.549447 -1.628383 -12.246598 16.685881 51.762820 0.000000 0.000000 0.000000 7.125000 0.000000 0.000000 62.080545 75.409511 -48.098575
8.977164 16.258754 31.313470 179.084339 -0.482793 -153.547674 0.000000 0.000000 0.000000 -18.426332 -15.317133 -20.437847 0.210786 2.956095 8.156461 0.263862 0.388805 -9.851906 4.179322 -12.395140 -37.144854 0.000000 0.000000 0.000000 17.908214 15.664993 -20.437798 -0.255123 -3.249670 8.974651 -1.358648 -0.829378 -22.349483 -3.085823 10.832715 -31.717747 -5.399223 -1.474118 -31.206338 -0.452831 -0.869673 -2.064107 1.990772 -1.072566 14.025654 -1.454583 -3.782774 0.497054 5.379852 -4.157929 -10.827199 2.140798 -1.993494 -3.437291 0.000000 0.000000 0.000000 2.698780 -5.859776 -32.303464 8.004744 -13.560434 0.953233 21.964910 4.815117 10.912487 0.000000 0.000000 0.000000 -7.125000 0.000000 0.000000 -3.605818 18.249722 -2.299788 0.000000 0.000000 0.000000 2.821080 -5.788284 11.848364 -10.553836 -17.601153 -1.638478 -12.282477 16.611776 51.691393 0.000000 0.000000 0.000000 7.125000 0.000000 0.000000 61.801240 75.396640 -47.837139
8.978358 16.260726 31.314079 179.132282 -0.479502 -153.580703 0.000000 0.000000 0.000000 -18.369505 -15.274522 -20.477331 0.217269 3.000805 8.280958 0.269307 0.375519 -9.945041 4.080873 -12.267286 -36.684194 0.000000 0.000000 0.000000 17.970760 15.611137 -20.424859 -0.255493 -3.252344 8.982142 -1.366141 -0.630019 -22.336201 -2.986804 10.673592 -31.186728 -5.362046 -1.454498 -31.148502 -0.456470 -0.859361 -2.073391 1.972463 -1.064394 13.988943 -1.429505 -3.793890 0.531666 5.402783 -4.168125 -10.848387 2.145918 -2.000544 -3.450992 0.000000 0.000000 0.000000 2.747147 -5.860089 -32.363504 8.025732 -13.594552 0.958218 21.921655 4.779506 10.873432 0.000000 0.000000 0.000000 -7.125000 0.000000 0.000000 -3.635082 18.295123 -2.314925 0.000000 0.000000 0.000000 2.877577 -5.742630 11.999997 -10.605849 -17.681636 -1.654239 -12.127572 16.382646 51.769108 0.000000 0.000000 0.000000 7.125000 0.000000 0.000000 62.168773 75.366294 -48.130972
